<svg width="34" height="12" viewBox="0 0 34 12" fill="none" xmlns="http://www.w3.org/2000/svg">
<path d="M14.6988 11.3167H11.9321L13.6612 0.689885H16.4282L14.6988 11.3167ZM9.60457 0.689885L6.96692 7.99906L6.65481 6.42511L6.65509 6.42568L5.72414 1.6467C5.72414 1.6467 5.61157 0.689885 4.41171 0.689885H0.0511668L0 0.869822C0 0.869822 1.33346 1.14726 2.89405 2.08446L5.29775 11.3169H8.18043L12.5822 0.689885H9.60457ZM31.3661 11.3167H33.9065L31.6915 0.689601H29.4675C28.4405 0.689601 28.1903 1.48155 28.1903 1.48155L24.064 11.3167H26.9481L27.5249 9.73816H31.042L31.3661 11.3167ZM28.3217 7.5576L29.7754 3.58081L30.5932 7.5576H28.3217ZM24.2803 3.24538L24.6752 0.963343C24.6752 0.963343 23.4568 0.5 22.1868 0.5C20.8138 0.5 17.5533 1.10007 17.5533 4.018C17.5533 6.76338 21.38 6.79749 21.38 8.23954C21.38 9.68159 17.9476 9.4232 16.8148 8.51385L16.4035 10.8999C16.4035 10.8999 17.6389 11.5 19.5264 11.5C21.4144 11.5 24.2627 10.5224 24.2627 7.86176C24.2627 5.09875 20.4016 4.8415 20.4016 3.64022C20.4019 2.43865 23.0964 2.593 24.2803 3.24538Z" fill="#2566AF"/>
<path d="M6.65509 6.42525L5.72414 1.64627C5.72414 1.64627 5.61157 0.689453 4.41171 0.689453H0.0511668L0 0.869389C0 0.869389 2.09585 1.30374 4.10613 2.93112C6.0283 4.48659 6.65509 6.42525 6.65509 6.42525Z" fill="#E6A540"/>
</svg>
