<?xml version="1.0" encoding="utf-8"?>
<!-- Generator: Adobe Illustrator 27.6.0, SVG Export Plug-In . SVG Version: 6.00 Build 0)  -->
<!DOCTYPE svg PUBLIC"-//W3C//DTD SVG 1.1//EN""http://www.w3.org/Graphics/SVG/1.1/DTD/svg11.dtd" [
	<!ENTITY ns_extend"http://ns.adobe.com/Extensibility/1.0/">
	<!ENTITY ns_ai"http://ns.adobe.com/AdobeIllustrator/10.0/">
	<!ENTITY ns_graphs"http://ns.adobe.com/Graphs/1.0/">
	<!ENTITY ns_vars"http://ns.adobe.com/Variables/1.0/">
	<!ENTITY ns_imrep"http://ns.adobe.com/ImageReplacement/1.0/">
	<!ENTITY ns_sfw"http://ns.adobe.com/SaveForWeb/1.0/">
	<!ENTITY ns_custom"http://ns.adobe.com/GenericCustomNamespace/1.0/">
	<!ENTITY ns_adobe_xpath"http://ns.adobe.com/XPath/1.0/">
]>
<svg version="1.1" id="Layer_3" xmlns:x="&ns_extend;" xmlns:i="&ns_ai;" xmlns:graph="&ns_graphs;"
	 xmlns="http://www.w3.org/2000/svg" xmlns:xlink="http://www.w3.org/1999/xlink" x="0px" y="0px" viewBox="0 0 28 28"
	 style="enable-background:new 0 0 28 28;" xml:space="preserve">
<style type="text/css">
	.st0{fill:#FFFFFF;}
	.st1{fill:none;}
	.st2{fill:#00FF00;}
</style>
<metadata>
	<sfw  xmlns="&ns_sfw;">
		<slices></slices>
		<sliceSourceBounds  bottomLeftOrigin="true" height="100.413" width="138.736" x="1.934" y="-101.696"></sliceSourceBounds>
	</sfw>
</metadata>
<g>
	<path d="M22.433,7.036c-0.01-0.05-0.02-0.11-0.02-0.16c-0.02-0.18-0.05-0.36-0.07-0.53c-0.02-0.12-0.04-0.23-0.06-0.34
		c-0.03-0.17-0.06-0.34-0.1-0.5c-0.04-0.17-0.08-0.33-0.12-0.49c-0.19-0.68-0.61-1.26-1.23-1.61c-0.91-0.53-2.56-1.15-5.2-1.1
		c-2.63-0.05-4.28,0.57-5.2,1.1c-0.334,0.192-0.622,0.459-0.84,0.776C9.333,4.563,9.211,4.991,9.11,5.435
		C9.035,5.766,8.972,6.099,8.92,6.434c-0.02,0.127-0.037,0.254-0.054,0.381C8.856,6.892,8.852,6.97,8.844,7.047
		C8.83,7.168,8.819,7.289,8.808,7.411c-0.01,0.115-0.026,0.23-0.034,0.346c-0.01,0.146-0.013,0.293-0.02,0.439
		c-0.005,0.116-0.012,0.23-0.015,0.346C8.737,8.599,8.732,8.656,8.731,8.713C8.725,8.999,8.728,9.285,8.733,9.57
		c0.001,0.029,0,0.059,0,0.105c0.008,0.32,0.022,0.64,0.043,0.96c0.008,0.122,0.041,0.25-0.038,0.355
		c-0.064,0.084-0.17,0.145-0.276,0.155c-0.2,0.02-0.38-0.15-0.4-0.35C7.979,9.458,7.988,8.213,8.099,7.077
		c0.068-0.699-0.734-1.159-1.284-0.723c-0.748,0.593-1.368,1.67-1.362,3.612c0.01,2.36,1.03,4.6,2.67,6.31
		c0.474,0.543,0.949,1.086,1.423,1.628c0.572,0.654,1.082,1.495,1.957,1.762c1.38,0.42,2.83,0.43,4.26,0.39
		c1.34-0.03,2.71,0,4.01-0.39c0.61-0.18,1.09-0.63,1.34-1.22c0.01-0.03,0.02-0.06,0.02-0.09c0.03-0.05,0.05-0.11,0.06-0.16
		C21.753,16.166,22.913,11.276,22.433,7.036z"/>
	<path d="M20.463,20.296l-0.55,4.12c-0.1,0.73-0.72,1.28-1.47,1.28h-5.32c-0.74,0-1.37-0.55-1.46-1.28l-0.53-3.91
		c0.11,0.06,0.24,0.12,0.37,0.16c1.38,0.42,2.83,0.43,4.26,0.39c1.34-0.03,2.71,0,4.01-0.39
		C20.033,20.586,20.263,20.466,20.463,20.296z"/>
</g>
</svg>
