<?xml version="1.0" encoding="utf-8"?>
<!-- Generator: Adobe Illustrator 27.6.0, SVG Export Plug-In . SVG Version: 6.00 Build 0)  -->
<!DOCTYPE svg PUBLIC"-//W3C//DTD SVG 1.1//EN""http://www.w3.org/Graphics/SVG/1.1/DTD/svg11.dtd" [
	<!ENTITY ns_extend"http://ns.adobe.com/Extensibility/1.0/">
	<!ENTITY ns_ai"http://ns.adobe.com/AdobeIllustrator/10.0/">
	<!ENTITY ns_graphs"http://ns.adobe.com/Graphs/1.0/">
	<!ENTITY ns_vars"http://ns.adobe.com/Variables/1.0/">
	<!ENTITY ns_imrep"http://ns.adobe.com/ImageReplacement/1.0/">
	<!ENTITY ns_sfw"http://ns.adobe.com/SaveForWeb/1.0/">
	<!ENTITY ns_custom"http://ns.adobe.com/GenericCustomNamespace/1.0/">
	<!ENTITY ns_adobe_xpath"http://ns.adobe.com/XPath/1.0/">
]>
<svg version="1.1" id="Layer_3" xmlns:x="&ns_extend;" xmlns:i="&ns_ai;" xmlns:graph="&ns_graphs;"
	 xmlns="http://www.w3.org/2000/svg" xmlns:xlink="http://www.w3.org/1999/xlink" x="0px" y="0px" viewBox="0 0 28 28"
	 style="enable-background:new 0 0 28 28;" xml:space="preserve">
<style type="text/css">
	.st0{fill:#FFFFFF;}
	.st1{fill:none;}
	.st2{fill:#00FF00;}
</style>
<metadata>
	<sfw  xmlns="&ns_sfw;">
		<slices></slices>
		<sliceSourceBounds  bottomLeftOrigin="true" height="100.413" width="138.736" x="1.934" y="-101.696"></sliceSourceBounds>
	</sfw>
</metadata>
<path d="M25.303,7.035c-0.598-0.056-1.208-0.203-1.738-0.497c-0.384-0.214-0.655-0.598-1.084-0.768
	c-1.129-0.452-2.37-0.26-3.24,0.609c-0.35,0.372-0.485,0.734-0.655,1.196c-0.316,0.824-0.869,1.535-1.693,1.896
	c-0.429,0.181-0.88,0.305-1.343,0.372c-1.129,0.181-2.291,0.113-3.42-0.056c-0.971-0.147-1.896-0.463-2.867-0.553
	c-0.959-0.102-1.953-0.011-2.89,0.192c-1.51,0.328-3.294,1.275-4.038,2.694c-0.434,0.827-0.503,1.788-0.511,2.705
	c-0.004,0.579,0.046,1.166,0.011,1.745c-0.038,0.625-0.002,1.294-0.284,1.865c0.733-1.297,0.549-3.121,0.932-4.616
	c0.073,1.397,0.65,2.584,0.65,2.584c0.497,1.354-0.294,2.483-0.734,2.991c-0.181,0.192-0.26,0.451-0.237,0.711l0.192,1.783
	c0,0,0.034,0.294,0.036,0.294c0.012,0.165,0.033,0.339,0.055,0.504c0.02,0.153,0.044,0.307,0.095,0.453
	c0.033,0.094,0.09,0.211,0.176,0.269c0.034,0.023,0.056,0.045,0.102,0.056c0.011,0.011,0.023,0.011,0.034,0.011
	c0.214,0.102,0.553,0.102,0.779,0c0.147-0.068,0.248-0.192,0.26-0.361c0-0.169-0.113-0.293-0.248-0.372
	c-0.102-0.056-0.192-0.079-0.282-0.09c-0.06-0.008-0.122-0.011-0.18-0.027c-0.031-0.009-0.062-0.021-0.088-0.04
	c-0.039-0.029-0.039-0.078-0.044-0.122c-0.007-0.057-0.014-0.114-0.02-0.171c-0.014-0.134-0.029-0.268-0.029-0.403
	c0.011-0.53,0.147-1.061,0.361-1.546c0.26-0.553,0.677-0.982,1.061-1.433c0.711-0.835,1.411-1.862,1.783-2.89
	c0.35-0.959,0.102-2.009,0.858-2.811c0.61-0.655,1.456-0.643,2.224-0.248c0.621,0.339,1.106,0.869,1.659,1.298
	c1.039,0.824,2.291,1.49,3.646,1.58c0.09,0,0.711,0.023,1.208-0.045c0.056,0.282,0.147,0.553,0.181,0.835
	c0.034,0.293,0.023,0.587,0.023,0.88c-0.023,1.467-0.045,3.686,0.169,5.154c0.034,0.26,0.045,0.542,0.271,0.722
	c0.282,0.237,1.163,0.214,1.174-0.293c0.006-0.293-0.336-0.466-0.59-0.475c-0.038-0.001-0.248-0.012-0.245-0.078
	c0.045-1.027,0.192-2.817,0.192-3.844c0.068-1.151,0.169-2.37,1.061-3.217c0.35-0.316,0.609-0.745,0.869-1.14
	c0.745-1.196,1.411-2.494,1.919-3.815c0.203-0.519,0.316-1.129,0.734-1.535c0.316-0.327,0.779-0.44,1.219-0.497
	c0.655-0.068,1.298-0.113,1.941-0.181c1.14-0.282,1.196-1.219,1.196-1.219L25.303,7.035z"/>
</svg>
