<svg _ngcontent-ng-c3376488383="" xmlns="http://www.w3.org/2000/svg" xmlns:xlink="http://www.w3.org/1999/xlink" aria-hidden="true" role="img" width="20px" height="20px" viewBox="0 0 24 24" class="component-iconify MuiBox-root css-1t9pz9x"><path _ngcontent-ng-c3376488383="" fill="currentColor" d="M6 11.5V6h5.5v5.5H6ZM6 18v-5.5h5.5V18H6Zm6.5-6.5V6H18v5.5h-5.5Zm0 6.5v-5.5H18V18h-5.5ZM5 21q-.825 0-1.413-.588T3 19V5q0-.825.588-1.413T5 3h14q.825 0 1.413.588T21 5v14q0 .825-.588 1.413T19 21H5Zm0-2h14V5H5v14Z"/></svg>