<?xml version="1.0" encoding="utf-8"?>
<!-- Generator: Adobe Illustrator 27.6.0, SVG Export Plug-In . SVG Version: 6.00 Build 0)  -->
<!DOCTYPE svg PUBLIC"-//W3C//DTD SVG 1.1//EN""http://www.w3.org/Graphics/SVG/1.1/DTD/svg11.dtd" [
	<!ENTITY ns_extend"http://ns.adobe.com/Extensibility/1.0/">
	<!ENTITY ns_ai"http://ns.adobe.com/AdobeIllustrator/10.0/">
	<!ENTITY ns_graphs"http://ns.adobe.com/Graphs/1.0/">
	<!ENTITY ns_vars"http://ns.adobe.com/Variables/1.0/">
	<!ENTITY ns_imrep"http://ns.adobe.com/ImageReplacement/1.0/">
	<!ENTITY ns_sfw"http://ns.adobe.com/SaveForWeb/1.0/">
	<!ENTITY ns_custom"http://ns.adobe.com/GenericCustomNamespace/1.0/">
	<!ENTITY ns_adobe_xpath"http://ns.adobe.com/XPath/1.0/">
]>
<svg version="1.1" id="Layer_3" xmlns:x="&ns_extend;" xmlns:i="&ns_ai;" xmlns:graph="&ns_graphs;"
	 xmlns="http://www.w3.org/2000/svg" xmlns:xlink="http://www.w3.org/1999/xlink" x="0px" y="0px" viewBox="0 0 28 28"
	 style="enable-background:new 0 0 28 28;" xml:space="preserve">
<style type="text/css">
	.st0{fill:#FFFFFF;}
	.st1{fill:none;}
	.st2{fill:#00FF00;}
</style>
<metadata>
	<sfw  xmlns="&ns_sfw;">
		<slices></slices>
		<sliceSourceBounds  bottomLeftOrigin="true" height="100.413" width="138.736" x="1.934" y="-101.696"></sliceSourceBounds>
	</sfw>
</metadata>
<path d="M22.804,14.377c-0.276-0.732-0.329-1.549-0.435-2.313c-0.202-1.528-0.562-3.034-1.018-4.498
	c-0.265-0.838-0.828-1.867-1.591-2.323c-0.17-0.764,0.403-2.164,0.456-2.313c-0.094,0.034-1.405,0.53-1.901,1.318
	c0.014-0.784,0.416-1.636,0.416-1.636c-1.591,0.233-2.546,2.069-2.546,2.069c-6.8,0-9.357,3.575-9.505,3.798
	c0.828-0.329,1.008-0.191,1.008-0.191c-2.387,1.793-2.875,4.466-2.875,4.466c0.573-0.339,1.199-0.477,1.199-0.477
	c-0.944,1.156-0.976,2.981-0.976,2.981c0.244,7.861,7.882,9.622,10.8,10.015c0.089,0.011,0.179,0.021,0.268,0.03
	c0.051,0.005,0.103,0.011,0.154,0.016c0.132,0.014,0.264,0.027,0.396,0.039c0.063,0.006,0.127,0.011,0.19,0.016
	c0.063,0.005,0.127,0.016,0.19,0.016c2.801-6.546-1.91-6.333-2.217-10.874c-0.044-0.652-0.048-1.357,0.139-1.992
	c0.257-0.874,1.004-1.138,1.675-0.426c0.483,0.513,0.978,1.016,1.469,1.521c0.409,0.421,1.119,0.914,1.322,1.478
	c0.058,0.161,0.077,0.334,0.117,0.501c0.06,0.247,0.186,0.427,0.391,0.574c0.265,0.117,0.573,0.148,0.849,0.17
	c0.361,0.064,1.146,0.276,1.475-0.021c0.106-0.095,0.096-0.286,0.202-0.382c0.127-0.085,0.329-0.117,0.456-0.18
	C23.525,15.469,22.952,14.769,22.804,14.377z"/>
</svg>
