<svg width="51" height="14" viewBox="0 0 51 14" fill="none" xmlns="http://www.w3.org/2000/svg">
<path d="M9.19876 0.978806C8.56824 0.547971 7.74546 0.332031 6.73042 0.332031H2.80074C2.48957 0.332031 2.31765 0.48671 2.285 0.795696L0.688605 10.7555C0.672014 10.8533 0.696637 10.9428 0.762249 11.0241C0.827486 11.1057 0.909539 11.1462 1.00781 11.1462H2.87438C3.20177 11.1462 3.38171 10.9919 3.41474 10.6824L3.85676 7.99729C3.8729 7.86716 3.93048 7.76136 4.02875 7.67988C4.12695 7.59854 4.24976 7.54527 4.39713 7.52094C4.54449 7.49677 4.68345 7.4846 4.81467 7.4846C4.94552 7.4846 5.101 7.49281 5.28139 7.509C5.46134 7.52527 5.57605 7.53318 5.62522 7.53318C7.03326 7.53318 8.13846 7.13883 8.94089 6.34932C9.74296 5.5601 10.1444 4.4657 10.1444 3.0659C10.1444 2.10574 9.82899 1.41001 9.19876 0.978506V0.978806ZM7.17259 3.96943C7.09046 4.53912 6.87786 4.91325 6.53403 5.09233C6.19013 5.27163 5.69894 5.36072 5.06046 5.36072L4.24991 5.3852L4.66753 2.7731C4.70012 2.59425 4.80649 2.50471 4.98674 2.50471H5.45353C6.10815 2.50471 6.58328 2.5985 6.87801 2.78534C7.17259 2.97263 7.27086 3.3675 7.17259 3.96943Z" fill="#476AA9"/>
<path d="M50.6679 0.332031H48.8506C48.6701 0.332031 48.5637 0.421572 48.5313 0.600577L46.9348 10.7559L46.9102 10.8047C46.9102 10.8864 46.943 10.9634 47.0086 11.0366C47.0737 11.1097 47.1559 11.1464 47.2541 11.1464H48.8753C49.1859 11.1464 49.3579 10.9921 49.3911 10.6827L50.9875 0.698249V0.673999C50.9874 0.446195 50.8806 0.332256 50.6679 0.332256V0.332031Z" fill="#009CDE"/>
<path d="M28.71 4.26362C28.71 4.18244 28.6771 4.10498 28.612 4.03186C28.5463 3.95866 28.4726 3.92188 28.3909 3.92188H26.4998C26.3193 3.92188 26.172 4.00365 26.0576 4.16594L23.4542 7.97436L22.3736 4.31257C22.2913 4.0523 22.1114 3.92188 21.8333 3.92188H19.991C19.909 3.92188 19.8352 3.95859 19.7701 4.03186C19.7045 4.10498 19.6719 4.18251 19.6719 4.26362C19.6719 4.29645 19.8316 4.77631 20.1508 5.70394C20.47 6.63172 20.8139 7.63262 21.1823 8.7068C21.5508 9.78083 21.7429 10.3507 21.7595 10.4154C20.4167 12.2382 19.7456 13.2148 19.7456 13.3448C19.7456 13.5566 19.852 13.6622 20.0649 13.6622H21.956C22.1361 13.6622 22.2834 13.581 22.3982 13.4181L28.6611 4.43434C28.6936 4.40203 28.71 4.34532 28.71 4.26354V4.26362Z" fill="#476AA9"/>
<path d="M46.3233 3.92095H44.4567C44.2273 3.92095 44.0885 4.18949 44.0394 4.72658C43.6132 4.07592 42.8359 3.75 41.7059 3.75C40.527 3.75 39.524 4.18949 38.6973 5.06832C37.8703 5.94723 37.457 6.98081 37.457 8.16871C37.457 9.12909 37.7394 9.89391 38.3042 10.4633C38.8691 11.0333 39.6263 11.3177 40.5763 11.3177C41.051 11.3177 41.534 11.2199 42.0252 11.0248C42.5165 10.8295 42.9009 10.5693 43.1797 10.2436C43.1797 10.26 43.1631 10.333 43.1306 10.4632C43.0976 10.5936 43.0815 10.6915 43.0815 10.7561C43.0815 11.0168 43.1876 11.1466 43.4008 11.1466H45.0956C45.4063 11.1466 45.5867 10.9923 45.6356 10.6828L46.6427 4.31141C46.6588 4.21374 46.6344 4.12435 46.569 4.04287C46.5033 3.96176 46.4216 3.92095 46.3233 3.92095ZM43.1182 8.73012C42.7007 9.137 42.1972 9.34041 41.6078 9.34041C41.1327 9.34041 40.7483 9.21042 40.4534 8.94986C40.1585 8.68997 40.0112 8.33189 40.0112 7.87569C40.0112 7.27398 40.2159 6.7651 40.6253 6.35008C41.0342 5.93507 41.5423 5.72756 42.1481 5.72756C42.6062 5.72756 42.9869 5.86187 43.2901 6.13026C43.5928 6.39881 43.7446 6.7692 43.7446 7.24115C43.7446 7.82696 43.5357 8.32346 43.1182 8.73012Z" fill="#009CDE"/>
<path d="M18.4211 3.92095H16.5546C16.325 3.92095 16.1861 4.18949 16.1369 4.72658C15.6948 4.07592 14.917 3.75 13.8036 3.75C12.6247 3.75 11.6217 4.18949 10.7949 5.06832C9.96795 5.94723 9.55469 6.98081 9.55469 8.16871C9.55469 9.12909 9.83718 9.89391 10.4021 10.4633C10.967 11.0333 11.7241 11.3177 12.6739 11.3177C13.1321 11.3177 13.6073 11.2199 14.0984 11.0248C14.5896 10.8295 14.9826 10.5693 15.2773 10.2436C15.2116 10.4388 15.179 10.6098 15.179 10.7561C15.179 11.0168 15.2854 11.1466 15.4983 11.1466H17.193C17.5038 11.1466 17.6842 10.9923 17.7333 10.6828L18.7403 4.31141C18.7564 4.21374 18.7319 4.12435 18.6666 4.04287C18.6011 3.96176 18.5193 3.92095 18.4211 3.92095ZM15.216 8.74221C14.7983 9.14148 14.2864 9.34041 13.681 9.34041C13.2059 9.34041 12.8252 9.21042 12.5388 8.94986C12.2521 8.68997 12.109 8.33189 12.109 7.87569C12.109 7.27398 12.3136 6.7651 12.7231 6.35008C13.1321 5.93507 13.6398 5.72756 14.2458 5.72756C14.7041 5.72756 15.0847 5.86187 15.388 6.13034C15.6906 6.39888 15.8423 6.76928 15.8423 7.24122C15.8423 7.8433 15.6335 8.3439 15.216 8.74221Z" fill="#476AA9"/>
<path d="M37.1012 0.978806C36.4707 0.547971 35.6481 0.332031 34.6329 0.332031H30.7277C30.4001 0.332031 30.2199 0.48671 30.1874 0.795696L28.591 10.7555C28.5744 10.8534 28.5989 10.9428 28.6646 11.0242C28.7295 11.1057 28.8119 11.1462 28.9102 11.1462H30.924C31.1205 11.1462 31.2514 11.0405 31.317 10.8289L31.7592 7.99729C31.7754 7.86716 31.8328 7.76136 31.9311 7.67988C32.0294 7.59854 32.152 7.54534 32.2996 7.52094C32.4468 7.49677 32.5857 7.4846 32.7171 7.4846C32.8479 7.4846 33.0034 7.49281 33.1836 7.509C33.3637 7.52527 33.4787 7.53318 33.5274 7.53318C34.9358 7.53318 36.0407 7.13883 36.8432 6.34932C37.6455 5.5601 38.0466 4.4657 38.0466 3.0659C38.0468 2.10581 37.7314 1.41009 37.1012 0.978581V0.978806ZM34.5837 4.99466C34.2235 5.23873 33.6831 5.36072 32.9628 5.36072L32.1768 5.3852L32.5944 2.7731C32.6268 2.59425 32.7332 2.50471 32.9136 2.50471H33.3555C33.7157 2.50471 34.0022 2.52098 34.2154 2.55343C34.4279 2.58627 34.6329 2.68767 34.8294 2.85854C35.0259 3.02949 35.1241 3.27773 35.1241 3.60321C35.1241 4.2867 34.9438 4.75044 34.5837 4.99466Z" fill="#009CDE"/>
</svg>
