<?xml version="1.0" encoding="utf-8"?>
<!-- Generator: Adobe Illustrator 27.6.0, SVG Export Plug-In . SVG Version: 6.00 Build 0)  -->
<!DOCTYPE svg PUBLIC"-//W3C//DTD SVG 1.1//EN""http://www.w3.org/Graphics/SVG/1.1/DTD/svg11.dtd" [
	<!ENTITY ns_extend"http://ns.adobe.com/Extensibility/1.0/">
	<!ENTITY ns_ai"http://ns.adobe.com/AdobeIllustrator/10.0/">
	<!ENTITY ns_graphs"http://ns.adobe.com/Graphs/1.0/">
	<!ENTITY ns_vars"http://ns.adobe.com/Variables/1.0/">
	<!ENTITY ns_imrep"http://ns.adobe.com/ImageReplacement/1.0/">
	<!ENTITY ns_sfw"http://ns.adobe.com/SaveForWeb/1.0/">
	<!ENTITY ns_custom"http://ns.adobe.com/GenericCustomNamespace/1.0/">
	<!ENTITY ns_adobe_xpath"http://ns.adobe.com/XPath/1.0/">
]>
<svg version="1.1" id="Layer_3" xmlns:x="&ns_extend;" xmlns:i="&ns_ai;" xmlns:graph="&ns_graphs;"
	 xmlns="http://www.w3.org/2000/svg" xmlns:xlink="http://www.w3.org/1999/xlink" x="0px" y="0px" viewBox="0 0 28 28"
	 style="enable-background:new 0 0 28 28;" xml:space="preserve">
<style type="text/css">
	.st0{fill:#FFFFFF;}
	.st1{fill:none;}
	.st2{fill:#00FF00;}
</style>
<metadata>
	<sfw  xmlns="&ns_sfw;">
		<slices></slices>
		<sliceSourceBounds  bottomLeftOrigin="true" height="100.413" width="138.736" x="1.934" y="-101.696"></sliceSourceBounds>
	</sfw>
</metadata>
<g>
	<path d="M10.278,11.445c0-0.191,0.074-0.371,0.208-0.505l0.544-0.544c-0.122-0.3-0.061-0.656,0.182-0.899L11.92,8.79
		c0.324-0.324,0.849-0.324,1.173,0c0.324,0.324,0.324,0.849,0,1.174l-0.707,0.707c-0.211,0.211-0.505,0.27-0.775,0.206l-0.126,0.126
		l-0.468,0.468l0.004,0.577l0.001,0.167h5.991v-0.18v-0.589l-0.464-0.458l-0.113-0.111c-0.272,0.066-0.569,0.007-0.781-0.205
		l-0.707-0.707c-0.324-0.324-0.324-0.849,0-1.174c0.324-0.324,0.849-0.324,1.173,0l0.707,0.707c0.243,0.243,0.304,0.6,0.182,0.899
		l0.544,0.544c0.133,0.133,0.209,0.317,0.209,0.505v0.769h1.661V9.762c0-1.063-0.862-1.926-1.926-1.926h-6.957
		c-1.063,0-1.926,0.862-1.926,1.926v2.452h1.661V11.445z"/>
	<circle cx="14.085" cy="4.283" r="3"/>
	<path d="M22.43,12.964H5.57c-0.508,0-0.884,0.474-0.767,0.969l0.628,2.658c0.084,0.356,0.401,0.607,0.767,0.607h1.97l-0.07-0.825
		c-0.031-0.376,0.097-0.751,0.352-1.028c0.255-0.277,0.617-0.436,0.994-0.436h9.111c0.377,0,0.739,0.159,0.994,0.436
		c0.255,0.277,0.383,0.652,0.352,1.028l-0.07,0.826h1.97c0.365,0,0.683-0.251,0.767-0.607l0.628-2.658
		C23.314,13.439,22.938,12.964,22.43,12.964z"/>
	<path d="M18.556,15.659H9.444c-0.17,0-0.327,0.069-0.441,0.194c-0.115,0.125-0.171,0.288-0.156,0.458l0.075,0.888l0.064,0.75
		l0.696,8.219c0.025,0.309,0.288,0.55,0.598,0.55h7.441c0.314,0,0.571-0.236,0.598-0.55l0.696-8.219l0.064-0.75l0.075-0.889
		c0.015-0.169-0.041-0.332-0.156-0.457C18.883,15.727,18.726,15.659,18.556,15.659z"/>
</g>
</svg>
