<svg _ngcontent-ng-c1879248033="" xmlns="http://www.w3.org/2000/svg" xmlns:xlink="http://www.w3.org/1999/xlink" aria-hidden="true" role="img" width="24px" height="24px" viewBox="0 0 24 24" class="component-iconify MuiBox-root css-9uy14h"><g _ngcontent-ng-c1879248033="" fill="none" stroke="currentColor" stroke-linecap="round" stroke-linejoin="round" stroke-width="2"><g _ngcontent-ng-c1879248033="" stroke-dasharray="2"><path _ngcontent-ng-c1879248033="" d="M12 21v1M21 12h1M12 3v-1M3 12h-1"><animate _ngcontent-ng-c1879248033="" fill="freeze" attributeName="stroke-dashoffset" dur="0.2s" values="4;2"/></path><path _ngcontent-ng-c1879248033="" d="M18.5 18.5l0.5 0.5M18.5 5.5l0.5 -0.5M5.5 5.5l-0.5 -0.5M5.5 18.5l-0.5 0.5"><animate _ngcontent-ng-c1879248033="" fill="freeze" attributeName="stroke-dashoffset" begin="0.2s" dur="0.2s" values="4;2"/></path></g><path _ngcontent-ng-c1879248033="" fill="currentColor" d="M7 6 C7 12.08 11.92 17 18 17 C18.53 17 19.05 16.96 19.56 16.89 C17.95 19.36 15.17 21 12 21 C7.03 21 3 16.97 3 12 C3 8.83 4.64 6.05 7.11 4.44 C7.04 4.95 7 5.47 7 6 Z" opacity="0"><set _ngcontent-ng-c1879248033="" attributeName="opacity" begin="0.5s" to="1"/></path></g><g _ngcontent-ng-c1879248033="" fill="currentColor" fill-opacity="0"><path _ngcontent-ng-c1879248033="" d="M15.22 6.03L17.75 4.09L14.56 4L13.5 1L12.44 4L9.25 4.09L11.78 6.03L10.87 9.09L13.5 7.28L16.13 9.09L15.22 6.03Z"><animate _ngcontent-ng-c1879248033="" fill="freeze" attributeName="fill-opacity" begin="0.6s" dur="0.4s" values="0;1"/></path><path _ngcontent-ng-c1879248033="" d="M19.61 12.25L21.25 11L19.19 10.95L18.5 9L17.81 10.95L15.75 11L17.39 12.25L16.8 14.23L18.5 13.06L20.2 14.23L19.61 12.25Z"><animate _ngcontent-ng-c1879248033="" fill="freeze" attributeName="fill-opacity" begin="1s" dur="0.4s" values="0;1"/></path></g><mask _ngcontent-ng-c1879248033="" id="iconifyReact0"><circle _ngcontent-ng-c1879248033="" cx="12" cy="12" r="12" fill="#fff"/><circle _ngcontent-ng-c1879248033="" cx="22" cy="2" r="3" fill="#fff"><animate _ngcontent-ng-c1879248033="" fill="freeze" attributeName="cx" begin="0.1s" dur="0.4s" values="22;18"/><animate _ngcontent-ng-c1879248033="" fill="freeze" attributeName="cy" begin="0.1s" dur="0.4s" values="2;6"/><animate _ngcontent-ng-c1879248033="" fill="freeze" attributeName="r" begin="0.1s" dur="0.4s" values="3;12"/></circle><circle _ngcontent-ng-c1879248033="" cx="22" cy="2" r="1"><animate _ngcontent-ng-c1879248033="" fill="freeze" attributeName="cx" begin="0.1s" dur="0.4s" values="22;18"/><animate _ngcontent-ng-c1879248033="" fill="freeze" attributeName="cy" begin="0.1s" dur="0.4s" values="2;6"/><animate _ngcontent-ng-c1879248033="" fill="freeze" attributeName="r" begin="0.1s" dur="0.4s" values="1;10"/></circle></mask><circle _ngcontent-ng-c1879248033="" cx="12" cy="12" r="6" fill="currentColor" mask="url(#iconifyReact0)"><set _ngcontent-ng-c1879248033="" attributeName="opacity" begin="0.5s" to="0"/><animate _ngcontent-ng-c1879248033="" fill="freeze" attributeName="r" begin="0.1s" dur="0.4s" values="6;10"/></circle></svg>