<svg width="25" height="16" viewBox="0 0 25 16" fill="none" xmlns="http://www.w3.org/2000/svg">
<path d="M15.0775 8.20894C15.0775 12.3746 11.7029 15.7499 7.53874 15.7499C3.37456 15.7499 0 12.3739 0 8.20894C0 4.04402 3.37539 0.667969 7.53874 0.667969C11.7021 0.667969 15.0775 4.04402 15.0775 8.20894Z" fill="#E2574C"/>
<path d="M16.5926 0.667969C14.9019 0.667969 13.3454 1.23129 12.0876 2.17168L12.0936 2.17242C12.341 2.41145 12.6139 2.57968 12.8243 2.85485L11.2558 2.87974C11.01 3.12787 10.786 3.39783 10.5748 3.67837H13.3408C13.5512 3.93096 13.7458 4.15047 13.9223 4.42944H10.0734C9.93236 4.67227 9.80193 4.92188 9.68805 5.18126H14.3605C14.4826 5.43988 14.592 5.63524 14.6848 5.909H9.4113C9.3276 6.1692 9.25598 6.43536 9.20164 6.7068H14.9057C14.9615 6.96775 15.0044 7.209 15.0339 7.4549H9.0885C9.0636 7.70302 9.05078 7.95486 9.05078 8.20903H15.0768C15.0768 8.47601 15.0579 8.7233 15.0308 8.96316H9.0885C9.11414 9.21881 9.15185 9.46991 9.20164 9.71729H14.8966C14.8378 9.96161 14.7699 10.2074 14.6847 10.4623H9.39394C9.47383 10.7202 9.57118 10.9706 9.67746 11.2149H14.3605C14.2308 11.4894 14.0837 11.7088 13.9216 11.966H10.0599C10.2122 12.2299 10.3804 12.4817 10.5628 12.7231L13.3409 12.7645C13.1041 13.0488 12.8003 13.22 12.5234 13.4688C12.5385 13.4809 12.0808 13.4673 11.1796 13.453C12.5506 14.8678 14.4667 15.75 16.5925 15.75C20.7574 15.75 24.1335 12.3739 24.1335 8.20903C24.1335 4.04419 20.7582 0.667969 16.5926 0.667969Z" fill="#F4B459"/>
</svg>
