<svg _ngcontent-ng-c1789027894="" xmlns="http://www.w3.org/2000/svg" xmlns:xlink="http://www.w3.org/1999/xlink" aria-hidden="true" role="img" width="24px" height="24px" viewBox="0 0 28 28" class="header-navitem-icon [filter:_invert(14%)_sepia(8%)_saturate(2191%)_hue-rotate(171deg)_brightness(90%)-contrast(90%)]"><g _ngcontent-ng-c1789027894="" fill="currentColor"><path _ngcontent-ng-c1789027894="" d="M25.065,10.415c-0.51-1.57-1.35-2.99-2.43-4.2c-1.61-1.78-3.77-3.07-6.21-3.58c-0.78-0.17-1.6-0.26-2.43-0.26 s-1.64,0.09-2.42,0.26c-2.45,0.51-4.61,1.8-6.21,3.58c-1.09,1.21-1.92,2.63-2.43,4.2c-0.36,1.13-0.56,2.33-0.56,3.58 s0.2,2.46,0.56,3.59c0.51,1.57,1.35,3,2.43,4.2c1.61,1.79,3.77,3.07,6.21,3.58c0.78,0.17,1.59,0.26,2.42,0.26s1.65-0.09,2.43-0.26 c2.44-0.51,4.59-1.8,6.21-3.58c1.08-1.2,1.92-2.63,2.42-4.2c0.37-1.13,0.57-2.34,0.57-3.59S25.425,11.545,25.065,10.415z M23.836,9.968l-2.676,1.538c-0.319-0.915-0.805-1.746-1.426-2.461l2.672-1.542C22.997,8.268,23.475,9.093,23.836,9.968z M18.349,18.949c-0.65,0.579-1.423,1.028-2.247,1.3l-0.002,0.001c-0.671,0.23-1.38,0.346-2.106,0.346 c-0.72,0-1.425-0.116-2.107-0.35c-0.207-0.068-0.409-0.147-0.606-0.235c-0.001,0-0.002-0.001-0.002-0.001 c-0.591-0.266-1.138-0.621-1.635-1.066l0,0c-1.059-0.928-1.798-2.183-2.089-3.54v-0.009v0l-0.02-0.099 c-0.044-0.214-0.076-0.427-0.098-0.643s-0.032-0.434-0.032-0.657c0-0.44,0.042-0.862,0.13-1.29l0.019-0.101 c0.29-1.36,1.031-2.617,2.098-3.554c0.657-0.587,1.409-1.023,2.246-1.299L11.9,7.751c0.671-0.229,1.376-0.346,2.095-0.346 c0.726,0,1.435,0.116,2.117,0.35c0.84,0.277,1.591,0.711,2.242,1.301l0.003,0.003c1.058,0.928,1.797,2.182,2.088,3.539v0.009 l0.02,0.099c0.087,0.428,0.13,0.85,0.13,1.29c0,0.453-0.042,0.882-0.131,1.314l0,0.001C20.187,16.703,19.438,17.994,18.349,18.949z M13.995,3.375c0.48,0,0.958,0.033,1.43,0.098v3.081c-0.464-0.089-0.94-0.148-1.43-0.148c-0.489,0-0.96,0.058-1.42,0.147v-3.08 C13.045,3.408,13.52,3.375,13.995,3.375z M5.592,7.501l2.674,1.544C7.645,9.76,7.159,10.591,6.84,11.506L4.164,9.968 C4.526,9.085,5.004,8.259,5.592,7.501z M4.165,18.032l2.676-1.537c0.319,0.915,0.804,1.746,1.426,2.461l-2.673,1.543 C5.01,19.743,4.527,18.908,4.165,18.032z M13.995,24.625c-0.475,0-0.95-0.033-1.42-0.097v-3.08c0.46,0.089,0.931,0.147,1.42,0.147 c0.49,0,0.966-0.059,1.43-0.148v3.081C14.953,24.592,14.475,24.625,13.995,24.625z M22.407,20.498l-2.673-1.543 c0.621-0.715,1.107-1.546,1.426-2.461l2.67,1.538C23.473,18.906,22.991,19.741,22.407,20.498z" opacity="0.65"/><path _ngcontent-ng-c1789027894="" d="M16.246,15.745c0-1.238-1.007-2.245-2.245-2.245h-0.042c-0.668-0.021-1.204-0.571-1.204-1.244 c0-0.686,0.559-1.244,1.244-1.244c0.687,0,1.245,0.559,1.245,1.244c0,0.276,0.224,0.5,0.5,0.5s0.5-0.224,0.5-0.5 c0-1.065-0.747-1.954-1.744-2.183V9.511c0-0.276-0.224-0.5-0.5-0.5s-0.5,0.224-0.5,0.5v0.561c-0.997,0.228-1.745,1.119-1.745,2.184 0,1.238,1.007,2.245,2.244,2.245h0.042c0.668,0.021,1.205,0.571,1.205,1.244c0,0.686-0.558,1.244-1.243,1.245 c-0.001,0-0.002-0.001-0.003-0.001c-0.001,0-0.001,0-0.002,0c-0.685-0.002-1.242-0.559-1.242-1.245c0-0.276-0.224-0.5-0.5-0.5 s-0.5,0.224-0.5,0.5c0,1.065,0.747,1.955,1.744,2.184v0.56c0,0.276,0.224,0.5,0.5,0.5s0.5-0.224,0.5-0.5V17.93 C15.497,17.702,16.246,16.811,16.246,15.745z"/></g></svg>