<?xml version="1.0" encoding="utf-8"?>
<!-- Generator: Adobe Illustrator 27.6.0, SVG Export Plug-In . SVG Version: 6.00 Build 0)  -->
<!DOCTYPE svg PUBLIC "-//W3C//DTD SVG 1.1//EN" "http://www.w3.org/Graphics/SVG/1.1/DTD/svg11.dtd" [
	<!ENTITY ns_extend "http://ns.adobe.com/Extensibility/1.0/">
	<!ENTITY ns_ai "http://ns.adobe.com/AdobeIllustrator/10.0/">
	<!ENTITY ns_graphs "http://ns.adobe.com/Graphs/1.0/">
	<!ENTITY ns_vars "http://ns.adobe.com/Variables/1.0/">
	<!ENTITY ns_imrep "http://ns.adobe.com/ImageReplacement/1.0/">
	<!ENTITY ns_sfw "http://ns.adobe.com/SaveForWeb/1.0/">
	<!ENTITY ns_custom "http://ns.adobe.com/GenericCustomNamespace/1.0/">
	<!ENTITY ns_adobe_xpath "http://ns.adobe.com/XPath/1.0/">
]>
<svg version="1.1" id="Layer_3" xmlns:x="&ns_extend;" xmlns:i="&ns_ai;" xmlns:graph="&ns_graphs;"
	 xmlns="http://www.w3.org/2000/svg" xmlns:xlink="http://www.w3.org/1999/xlink" x="0px" y="0px" viewBox="0 0 28 28"
	 style="enable-background:new 0 0 28 28;" xml:space="preserve">
<style type="text/css">
	.st0{fill:#FFFFFF;}
	.st1{fill:none;}
	.st2{fill:#00FF00;}
</style>
<metadata>
	<sfw  xmlns="&ns_sfw;">
		<slices></slices>
		<sliceSourceBounds  bottomLeftOrigin="true" height="100.413" width="138.736" x="1.934" y="-101.696"></sliceSourceBounds>
	</sfw>
</metadata>
<g>
	<path d="M8.394,18.916c0.681,0.956,1.396,1.956,1.286,3.077c-0.011,0.165-0.055,0.33-0.11,0.484
		c-0.571,0.538-1.143,1.077-1.714,1.605c-0.813-0.517-1.341-1.44-1.341-2.484c0-1.231,0.758-2.308,1.824-2.758
		C8.35,18.861,8.372,18.894,8.394,18.916z"/>
	<path d="M12.108,20.092c-0.527,0.495-1.066,1-1.604,1.506c-0.055-1.143-0.703-2.121-1.319-2.989c0.11,0,0.22-0.011,0.33-0.011
		C10.625,18.597,11.592,19.202,12.108,20.092z"/>
	<path d="M26.065,3.563c0,0.011,0,0.011,0,0.022c0.011,0.451-0.187,0.89-0.527,1.187c-2.264,1.978-4.539,3.967-6.814,5.956
		c0.242,0.67,0.495,1.33,0.758,1.978c0.088,0.198,0.044,0.429-0.121,0.582c-2.22,2.077-4.451,4.165-6.682,6.264
		c-0.67-1.033-1.835-1.714-3.165-1.714c-2.077,0-3.758,1.681-3.758,3.758c0,1.242,0.604,2.352,1.528,3.033
		c-0.451,0.418-0.89,0.835-1.341,1.253c-0.143,0.143-0.363,0.198-0.56,0.176c-0.055-0.011-0.11-0.022-0.165-0.044
		c-0.143-0.055-0.264-0.165-0.385-0.264c-0.758-0.648-1.473-1.308-2.143-2.055c-0.154-0.176-0.308-0.352-0.462-0.527
		c-0.132-0.154-0.253-0.33-0.286-0.527c-0.033-0.209,0.033-0.44,0.176-0.582c4.209-4.495,8.407-8.968,12.594-13.419
		c0.154-0.165,0.385-0.209,0.582-0.132c0.648,0.264,1.308,0.517,1.978,0.758c1.989-2.275,3.967-4.539,5.956-6.814
		c0.297-0.341,0.725-0.528,1.187-0.517c0,0,0.011,0,0.022,0C25.329,1.959,26.043,2.673,26.065,3.563z"/>
	<path class="st0" d="M9.57,22.476c-0.198,0.626-0.67,1.231-1.407,1.791c-0.11-0.055-0.209-0.11-0.308-0.187
		c-0.813-0.517-1.341-1.44-1.341-2.484c0-1.231,0.758-2.308,1.824-2.758c0.011,0.022,0.033,0.055,0.055,0.077
		c0.681,0.956,1.396,1.956,1.286,3.077C9.669,22.158,9.625,22.323,9.57,22.476z"/>
	<path class="st0" d="M12.515,21.597c0,1.659-1.341,3-3,3c-0.143,0-0.286-0.011-0.429-0.033c0.846-0.747,1.33-1.583,1.418-2.495
		c0.011-0.165,0.022-0.319,0-0.473c-0.055-1.143-0.703-2.121-1.319-2.989c0.11,0,0.22-0.011,0.33-0.011
		c1.11,0,2.077,0.604,2.594,1.495C12.372,20.531,12.515,21.048,12.515,21.597z"/>
	<g>
		<path d="M9.68,21.993c-0.011,0.165-0.055,0.33-0.11,0.484c-0.198,0.626-0.67,1.231-1.407,1.791
			c-0.11-0.055-0.209-0.11-0.308-0.187c-0.813-0.517-1.341-1.44-1.341-2.484c0-1.231,0.758-2.308,1.824-2.758
			c0.011,0.022,0.033,0.055,0.055,0.077C9.075,19.872,9.789,20.872,9.68,21.993z"/>
		<path d="M12.515,21.597c0,1.659-1.341,3-3,3c-0.143,0-0.286-0.011-0.429-0.033c0.846-0.747,1.33-1.583,1.418-2.495
			c0.011-0.165,0.022-0.319,0-0.473c-0.055-1.143-0.703-2.121-1.319-2.989c0.11,0,0.22-0.011,0.33-0.011
			c1.11,0,2.077,0.604,2.594,1.495C12.372,20.531,12.515,21.048,12.515,21.597z"/>
	</g>
</g>
</svg>
