<svg width="17" height="15" viewBox="0 0 17 15" fill="none" xmlns="http://www.w3.org/2000/svg">
<path d="M15.4988 3.41868C13.8517 2.46793 11.7457 3.03288 10.7939 4.67992L8.39461 8.83612C7.70037 10.0363 8.5941 10.4557 9.59068 11.0532L11.8993 12.3857C12.6811 12.8366 13.6797 12.5689 14.1307 11.7881L16.5971 7.51688C17.4257 6.0816 16.9341 4.2473 15.4988 3.41868Z" fill="#EA4335"/>
<path d="M12.7804 5.14054L10.4718 3.80808C9.1973 3.10061 8.47559 3.05378 7.95234 3.88544L4.54737 9.78236C3.59661 11.4284 4.16259 13.5335 5.80858 14.4822C7.24387 15.3108 9.07821 14.8191 9.9068 13.3838L13.3769 7.37287C13.8299 6.59112 13.5622 5.59149 12.7804 5.14054Z" fill="#FBBC04"/>
<path d="M13.2285 2.10748L11.6069 1.17098C9.81336 0.135736 7.51995 0.749551 6.48472 2.54315L3.39731 7.89036C2.94127 8.67927 3.21204 9.68905 4.00096 10.1441L5.81696 11.1926C6.71374 11.7107 7.85992 11.4033 8.37807 10.5065L11.9052 4.39785C12.6361 3.13254 14.2536 2.6989 15.5189 3.42978L13.2285 2.10748Z" fill="#34A853"/>
<path d="M6.92229 4.07217L5.16941 3.06237C4.38762 2.61245 3.38904 2.87914 2.9381 3.65889L0.835041 7.29293C-0.200203 9.08142 0.413614 11.3698 2.20722 12.402L3.54173 13.1705L5.16024 14.1029L5.86263 14.507C4.61565 13.6723 4.21967 11.9999 4.9821 10.6826L5.52669 9.74206L7.52084 6.29635C7.97077 5.51867 7.70305 4.52209 6.92229 4.07217Z" fill="#4285F4"/>
</svg>