<?xml version="1.0" encoding="utf-8"?>
<!-- Generator: Adobe Illustrator 27.6.0, SVG Export Plug-In . SVG Version: 6.00 Build 0)  -->
<!DOCTYPE svg PUBLIC "-//W3C//DTD SVG 1.1//EN" "http://www.w3.org/Graphics/SVG/1.1/DTD/svg11.dtd" [
	<!ENTITY ns_extend "http://ns.adobe.com/Extensibility/1.0/">
	<!ENTITY ns_ai "http://ns.adobe.com/AdobeIllustrator/10.0/">
	<!ENTITY ns_graphs "http://ns.adobe.com/Graphs/1.0/">
	<!ENTITY ns_vars "http://ns.adobe.com/Variables/1.0/">
	<!ENTITY ns_imrep "http://ns.adobe.com/ImageReplacement/1.0/">
	<!ENTITY ns_sfw "http://ns.adobe.com/SaveForWeb/1.0/">
	<!ENTITY ns_custom "http://ns.adobe.com/GenericCustomNamespace/1.0/">
	<!ENTITY ns_adobe_xpath "http://ns.adobe.com/XPath/1.0/">
]>
<svg version="1.1" id="Layer_3" xmlns:x="&ns_extend;" xmlns:i="&ns_ai;" xmlns:graph="&ns_graphs;"
	 xmlns="http://www.w3.org/2000/svg" xmlns:xlink="http://www.w3.org/1999/xlink" x="0px" y="0px" viewBox="0 0 28 28"
	 style="enable-background:new 0 0 28 28;" xml:space="preserve">
<style type="text/css">
	.st0{fill:#FFFFFF;}
	.st1{fill:none;}
	.st2{fill:#00FF00;}
</style>
<metadata>
	<sfw  xmlns="&ns_sfw;">
		<slices></slices>
		<sliceSourceBounds  bottomLeftOrigin="true" height="100.413" width="138.736" x="1.934" y="-101.696"></sliceSourceBounds>
	</sfw>
</metadata>
<path d="M25.25,11.09c-0.24-0.93-0.59-1.82-1.04-2.65c-0.55-1.01-1.25-1.93-2.06-2.73c-0.4-0.39-0.83-0.75-1.28-1.07
	c-0.02-0.03-0.05-0.04-0.07-0.06c-1.1-0.8-2.34-1.41-3.69-1.78c-0.2-0.06-0.41-0.11-0.61-0.15c-0.75-0.16-1.53-0.25-2.33-0.26h-0.01
	C14.11,2.38,14.05,2.38,14,2.38c-1.07,0-2.1,0.14-3.09,0.42c-0.37,0.1-0.74,0.22-1.09,0.36C8.33,3.73,6.98,4.6,5.86,5.71
	c-1,0.98-1.83,2.15-2.42,3.45c-0.29,0.61-0.52,1.26-0.69,1.92v0.01C2.51,12.02,2.38,13,2.38,14s0.13,1.98,0.37,2.91
	c0.19,0.74,0.45,1.45,0.78,2.13c0.58,1.21,1.37,2.31,2.32,3.25c0.32,0.31,0.66,0.61,1.01,0.88c1.19,0.92,2.56,1.62,4.05,2.03
	c0.99,0.28,2.02,0.42,3.09,0.42c0.86,0,1.7-0.1,2.5-0.27c0.21-0.05,0.41-0.1,0.61-0.15c1.93-0.53,3.66-1.55,5.04-2.92
	c0.29-0.28,0.56-0.58,0.81-0.89c1.07-1.29,1.86-2.81,2.29-4.48V16.9c0.24-0.93,0.37-1.9,0.37-2.9S25.49,12.02,25.25,11.09z
	 M20.126,5.327l0.014,0.021l0.15,0.107c0.405,0.288,0.796,0.615,1.157,0.966c0.753,0.744,1.388,1.584,1.884,2.495
	c0.167,0.309,0.309,0.632,0.445,0.958l-0.34,1.123l-2.325-0.541l-2.803-3.703l0.341-1.785l0.754-0.112
	C19.649,5.004,19.891,5.159,20.126,5.327z M15.401,22.279c-1.959-0.216-3.701-0.874-4.761-1.357l-1.008-4.023l3.818-3.232
	l4.428,1.465c0.306,1.214,0.7,2.914,0.981,4.155L15.401,22.279z M5.884,14.877c-0.19-0.954-0.377-2.674-0.023-4.986l3.105-2.616
	l3.618,1.365l0.234,4.249L8.897,16.21L5.884,14.877z M10.191,4.088c0.299-0.119,0.628-0.228,0.991-0.326
	C12.079,3.509,13.027,3.38,14,3.38l0.017,0l0.048,0.009l0.093,0.001c0.633,0.008,1.266,0.081,1.896,0.2l1.628,1.115l-0.328,1.721
	l-4.098,1.398L9.458,6.392l0.233-2.083C9.858,4.236,10.02,4.154,10.191,4.088z M3.718,16.66C3.494,15.79,3.38,14.895,3.38,14
	c0-0.895,0.114-1.79,0.338-2.66l0.026-0.109c0.134-0.501,0.31-0.976,0.513-1.435l0.545,0.424c-0.302,2.354-0.075,4.082,0.134,5.033
	l-0.9,2.424C3.914,17.344,3.807,17.005,3.718,16.66z M14,24.62c-0.973,0-1.921-0.129-2.825-0.384
	c-1.146-0.315-2.218-0.829-3.204-1.508l2.25-0.894c1.096,0.503,2.863,1.173,4.896,1.421l0.779,1.18
	C15.255,24.549,14.618,24.62,14,24.62z M24.255,16.76c-0.278,1.037-0.713,2.006-1.285,2.906l-3.125-0.55
	c-0.253-1.117-0.677-2.964-1.014-4.288l2.118-3.382l2.347,0.546l0.991,4.627c-0.003,0.01-0.003,0.021-0.006,0.031L24.255,16.76z"/>
</svg>
