<?xml version="1.0" encoding="utf-8"?>
<!-- Generator: Adobe Illustrator 27.6.0, SVG Export Plug-In . SVG Version: 6.00 Build 0)  -->
<!DOCTYPE svg PUBLIC "-//W3C//DTD SVG 1.1//EN" "http://www.w3.org/Graphics/SVG/1.1/DTD/svg11.dtd" [
	<!ENTITY ns_extend "http://ns.adobe.com/Extensibility/1.0/">
	<!ENTITY ns_ai "http://ns.adobe.com/AdobeIllustrator/10.0/">
	<!ENTITY ns_graphs "http://ns.adobe.com/Graphs/1.0/">
	<!ENTITY ns_vars "http://ns.adobe.com/Variables/1.0/">
	<!ENTITY ns_imrep "http://ns.adobe.com/ImageReplacement/1.0/">
	<!ENTITY ns_sfw "http://ns.adobe.com/SaveForWeb/1.0/">
	<!ENTITY ns_custom "http://ns.adobe.com/GenericCustomNamespace/1.0/">
	<!ENTITY ns_adobe_xpath "http://ns.adobe.com/XPath/1.0/">
]>
<svg version="1.1" id="Layer_3" xmlns:x="&ns_extend;" xmlns:i="&ns_ai;" xmlns:graph="&ns_graphs;"
	 xmlns="http://www.w3.org/2000/svg" xmlns:xlink="http://www.w3.org/1999/xlink" x="0px" y="0px" viewBox="0 0 28 28"
	 style="enable-background:new 0 0 28 28;" xml:space="preserve">
<style type="text/css">
	.st0{fill:#FFFFFF;}
	.st1{fill:none;}
	.st2{fill:#00FF00;}
</style>
<metadata>
	<sfw  xmlns="&ns_sfw;">
		<slices></slices>
		<sliceSourceBounds  bottomLeftOrigin="true" height="100.413" width="138.736" x="1.934" y="-101.696"></sliceSourceBounds>
	</sfw>
</metadata>
<g>
	<g>
		<path class="st1" d="M12.101,10.241c-0.36,0-0.701-0.067-1.03-0.162c-0.132,0.658-0.181,1.316-0.122,1.953
			c0.028,0.481,0.12,0.94,0.269,1.386c0.255,0.778,0.686,1.492,1.28,2.086c0.594,0.594,1.301,1.018,2.079,1.273
			c0.445,0.148,0.905,0.24,1.393,0.276c2.065,0.184,4.363-0.643,6.131-2.411c2.885-2.885,3.274-7.191,0.863-9.603
			c-1.928-1.928-5.072-2.065-7.73-0.569c0.381,0.586,0.607,1.282,0.607,2.032C15.84,8.567,14.166,10.241,12.101,10.241z"/>
		<path class="st1" d="M10.51,15.413c-0.445,1.181-1.032,2.531-1.775,3.854c1.308-0.742,2.666-1.336,3.84-1.789
			c-0.41-0.255-0.785-0.559-1.138-0.912C11.083,16.212,10.779,15.823,10.51,15.413z"/>
		<path d="M25.91,10.533c0.064-0.375,0.106-0.742,0.113-1.117c0.014-0.255,0.021-0.502,0-0.75c0-0.198-0.021-0.389-0.042-0.58
			c-0.042-0.325-0.099-0.651-0.184-0.962c-0.035-0.163-0.078-0.318-0.134-0.474C25.571,6.375,25.465,6.1,25.33,5.838
			c-0.05-0.12-0.113-0.226-0.17-0.339c-0.297-0.552-0.679-1.061-1.138-1.52c-1.032-1.032-2.326-1.662-3.734-1.895
			c-0.177-0.035-0.361-0.064-0.544-0.078c-0.368-0.042-0.742-0.049-1.117-0.028c-0.226,0-0.453,0.014-0.672,0.05
			c-0.311,0.028-0.615,0.092-0.912,0.163c-0.156,0.028-0.304,0.064-0.453,0.113c-0.021-0.007-0.035,0.007-0.057,0.014
			c-0.417,0.12-0.834,0.269-1.245,0.452c-0.262,0.12-0.53,0.248-0.785,0.403c-0.12,0.064-0.248,0.134-0.361,0.205
			c0.438,0.283,0.799,0.658,1.089,1.089c0.127-0.071,0.248-0.134,0.375-0.191c0.071-0.042,0.127-0.071,0.198-0.099l0.007-0.007
			c0.014,0,0.028-0.014,0.035-0.021c0.057-0.028,0.106-0.05,0.163-0.064c0.113-0.057,0.233-0.106,0.361-0.149
			c0.028-0.014,0.05-0.021,0.078-0.035c0.042-0.014,0.092-0.035,0.141-0.042c0.092-0.035,0.177-0.064,0.269-0.085
			c0.318-0.106,0.651-0.184,0.976-0.226c0.361-0.064,0.728-0.092,1.082-0.092c0.198,0,0.403,0.007,0.608,0.028
			c0.325,0.028,0.643,0.078,0.955,0.163c0.021,0.007,0.042,0.014,0.064,0.021c0.127,0.028,0.247,0.064,0.375,0.106
			c0.134,0.05,0.276,0.106,0.417,0.163c0.141,0.057,0.283,0.127,0.417,0.205c0.24,0.127,0.474,0.276,0.686,0.445
			c0.12,0.092,0.233,0.177,0.339,0.283c0.064,0.05,0.127,0.113,0.184,0.17c0.113,0.113,0.212,0.226,0.304,0.347
			c0.028,0.028,0.05,0.05,0.064,0.078c0.035,0.035,0.064,0.078,0.092,0.106c0.05,0.064,0.099,0.127,0.134,0.191
			c0.014,0.028,0.028,0.042,0.035,0.064c0.078,0.106,0.149,0.219,0.212,0.339c0.078,0.12,0.141,0.24,0.205,0.375
			c0.064,0.149,0.127,0.297,0.177,0.445c0.05,0.134,0.099,0.269,0.127,0.41c0.05,0.134,0.078,0.276,0.106,0.417
			c0.05,0.219,0.078,0.431,0.092,0.658c0.035,0.346,0.042,0.707,0.014,1.075c-0.014,0.24-0.042,0.481-0.092,0.714
			c-0.028,0.184-0.064,0.375-0.12,0.545c-0.021,0.12-0.05,0.233-0.092,0.332c-0.007,0.021-0.014,0.042-0.014,0.071
			c-0.028,0.099-0.057,0.184-0.099,0.269c-0.007,0.021-0.021,0.05-0.028,0.071l0,0.014c-0.007,0.021-0.014,0.042-0.021,0.064
			c-0.028,0.099-0.064,0.177-0.106,0.262l-0.007,0.007c-0.035,0.106-0.078,0.205-0.127,0.311c-0.021,0.05-0.049,0.106-0.078,0.163
			c0,0.014,0,0.014-0.007,0.021c-0.007,0.021-0.021,0.035-0.028,0.057c-0.014,0.014-0.028,0.042-0.035,0.064
			c-0.113,0.226-0.248,0.445-0.396,0.665c-0.057,0.113-0.134,0.219-0.212,0.325c-0.057,0.099-0.134,0.191-0.205,0.276l-0.042,0.042
			c-0.035,0.064-0.085,0.113-0.127,0.17c-0.042,0.057-0.085,0.113-0.134,0.163c-0.092,0.106-0.184,0.212-0.283,0.311
			c-0.05,0.064-0.113,0.127-0.17,0.184l-0.106,0.106c-0.212,0.198-0.417,0.389-0.643,0.559c-0.106,0.092-0.212,0.17-0.325,0.24
			c-0.127,0.099-0.269,0.198-0.403,0.276l-0.014,0.014c-0.007,0.007-0.007,0.007-0.021,0.007c-0.191,0.134-0.389,0.247-0.594,0.354
			c-0.028,0.014-0.049,0.021-0.064,0.035c-0.191,0.092-0.375,0.177-0.559,0.247c-0.007,0.007-0.014,0.014-0.028,0.014l-0.007,0.007
			c-0.071,0.028-0.141,0.057-0.212,0.085c-0.141,0.057-0.29,0.106-0.438,0.141c-0.113,0.042-0.233,0.078-0.354,0.113
			c-0.113,0.042-0.247,0.064-0.361,0.078c-0.014,0-0.028,0-0.042,0c-0.007,0.007-0.007,0.007-0.021,0.007
			c-0.007,0.007-0.021,0.007-0.035,0.007c-0.007,0.007-0.021,0.007-0.035,0.007c-0.035,0.007-0.071,0.014-0.106,0.021
			c-0.12,0.021-0.233,0.05-0.354,0.057c-0.12,0.021-0.24,0.028-0.361,0.035c-0.014,0-0.035,0.007-0.05,0.007
			c-0.028,0-0.05,0.007-0.071,0c-0.092,0.007-0.191,0.007-0.276,0.007c-0.191,0.007-0.368,0-0.552-0.014
			c-0.035,0.007-0.071,0-0.099,0c-0.212-0.014-0.41-0.042-0.615-0.078c-0.007,0.007-0.014,0-0.014,0
			c-0.262-0.049-0.509-0.113-0.764-0.198c-0.042-0.014-0.085-0.028-0.134-0.05c-0.149-0.05-0.297-0.113-0.445-0.177
			c-0.127-0.057-0.247-0.12-0.368-0.198c-0.12-0.064-0.233-0.134-0.346-0.219c-0.007-0.007-0.021-0.007-0.028-0.014
			c-0.078-0.049-0.163-0.106-0.24-0.17c-0.028-0.028-0.064-0.05-0.092-0.078c-0.021-0.021-0.05-0.035-0.071-0.057
			c-0.12-0.092-0.24-0.198-0.354-0.311c-0.057-0.057-0.12-0.12-0.163-0.191c-0.113-0.099-0.205-0.219-0.29-0.332
			c-0.106-0.134-0.205-0.276-0.29-0.417c-0.057-0.085-0.106-0.177-0.156-0.269c-0.014-0.028-0.028-0.057-0.042-0.085
			c-0.007-0.007-0.007-0.007-0.007-0.021c-0.064-0.092-0.12-0.205-0.156-0.311c-0.064-0.149-0.12-0.304-0.177-0.46
			c-0.042-0.127-0.078-0.262-0.113-0.396c-0.035-0.134-0.057-0.269-0.092-0.403c-0.028-0.198-0.049-0.389-0.064-0.587
			c-0.007-0.035,0-0.071-0.007-0.106c0-0.014,0-0.014,0-0.028c-0.014-0.141-0.021-0.304-0.014-0.453
			c0-0.226,0.014-0.438,0.042-0.665l0.007-0.007l-0.007-0.007c0.021-0.163,0.042-0.325,0.071-0.495
			c0.007-0.064,0.028-0.127,0.035-0.191c-0.127-0.042-0.255-0.085-0.375-0.134c-0.127-0.042-0.255-0.099-0.361-0.163
			c-0.226-0.127-0.438-0.269-0.636-0.438c0,0-0.007,0.007,0,0.014C9.696,9.395,9.682,9.437,9.675,9.473
			c-0.078,0.332-0.141,0.665-0.191,0.997c-0.028,0.24-0.05,0.474-0.057,0.707C9.42,11.283,9.42,11.396,9.42,11.509
			c0,0.283-0.007,0.573-0.035,0.856c-0.007,0.233-0.028,0.453-0.057,0.679c-0.205,1.619-0.721,3.21-1.471,4.667
			c-0.248,0.488-0.516,0.983-0.806,1.457c0.085,0.028,0.156,0.071,0.212,0.127l1.435,1.435c0.064,0.064,0.113,0.141,0.134,0.219
			c0.474-0.29,0.962-0.552,1.457-0.806c1.605-0.813,3.352-1.358,5.141-1.506c0.219-0.021,0.438-0.042,0.665-0.042
			c0.141-0.014,0.283-0.014,0.424-0.014c0.17,0,0.332-0.007,0.481-0.028c0.346-0.007,0.686-0.05,1.011-0.12
			c0.184-0.014,0.354-0.057,0.516-0.106c0.163-0.021,0.304-0.064,0.453-0.113c0.297-0.085,0.587-0.191,0.877-0.311
			c0.035-0.007,0.078-0.021,0.113-0.042c1.138-0.474,2.234-1.202,3.189-2.157C24.659,14.203,25.578,12.379,25.91,10.533z
			 M8.735,19.266c0.742-1.322,1.329-2.673,1.775-3.854c0.269,0.41,0.573,0.799,0.926,1.153s0.728,0.658,1.138,0.912
			C11.4,17.93,10.043,18.524,8.735,19.266z"/>
		<path d="M6.561,20.005c-0.232-0.232-0.608-0.232-0.84,0l-3.319,3.319c-0.586,0.586-0.586,1.536,0,2.121l0.15,0.15
			c0.586,0.586,1.536,0.586,2.121,0l3.319-3.319c0.232-0.232,0.232-0.608,0-0.84L6.561,20.005z"/>
		<g>
			<path d="M14.963,5.663c-0.301-1.03-1.129-1.829-2.181-2.074c-0.087,1.103-0.467,1.987-1.143,2.631
				C10.922,6.901,10.009,7.187,9.227,7.3c0.283,1.015,1.079,1.806,2.098,2.08c0.088-1.1,0.467-1.982,1.142-2.625
				C13.209,6.048,14.163,5.767,14.963,5.663z"/>
			<path d="M12.069,9.491c0.011,0,0.021,0.003,0.032,0.003c1.654,0,2.995-1.341,2.995-2.995c0-0.032-0.008-0.062-0.009-0.093
				c-0.685,0.086-1.498,0.315-2.104,0.896C12.439,7.82,12.135,8.556,12.069,9.491z"/>
			<path d="M12.033,3.511c-1.622,0.037-2.927,1.357-2.927,2.988c0,0.018,0.005,0.035,0.005,0.054
				c0.666-0.094,1.432-0.325,2.013-0.879C11.661,5.159,11.962,4.431,12.033,3.511z"/>
		</g>
	</g>
	<path d="M19.49,16.954l0.594-0.594l0.58,0.58l0.283-0.283l-0.58-0.58l0.594-0.594l0.474,0.474l0.283-0.283L21.243,15.2l0.601-0.601
		l0.368,0.368l0.283-0.283l-0.368-0.368l0.594-0.594l0.255,0.255l0.283-0.283l-0.255-0.255l0.601-0.601l0.149,0.149l0.283-0.283
		l-0.149-0.149l0.594-0.594l0.042,0.042l0.283-0.283l-0.042-0.042l1.146-1.146c0.064-0.375,0.106-0.742,0.113-1.117l-0.375-0.375
		l0.375-0.375c0-0.198-0.021-0.389-0.042-0.58L25.337,8.73l-0.573-0.573l1.032-1.032c-0.035-0.163-0.078-0.318-0.134-0.474
		l-1.202,1.202l-0.573-0.573l1.443-1.443c-0.05-0.12-0.113-0.226-0.17-0.339l-0.057-0.057l-1.527,1.527l-0.566-0.566l1.393-1.393
		L24.093,4.7L22.7,6.093L22.127,5.52l1.266-1.266l-0.311-0.311l-1.266,1.266L21.25,4.643l1.131-1.131l-0.311-0.311l-1.131,1.131
		l-0.573-0.573l1.004-1.004l-0.311-0.311l-1.004,1.004L19.49,2.882l0.799-0.799c-0.177-0.035-0.361-0.064-0.544-0.078l-0.566,0.566
		l-0.573-0.573l0.021-0.021c-0.226,0-0.453,0.014-0.672,0.05l-0.537,0.537l-0.375-0.375c-0.156,0.028-0.304,0.064-0.453,0.113
		l0.544,0.544l-0.601,0.601l-0.566-0.566l0.566-0.566c-0.417,0.12-0.834,0.269-1.245,0.452l0.085,0.085L14.78,3.448l-0.276-0.276
		c-0.12,0.064-0.248,0.134-0.361,0.205l0.035,0.035c0.191,0.12,0.368,0.269,0.537,0.438s0.318,0.346,0.438,0.537l0.219,0.219
		l-0.049,0.049c0.078,0.134,0.148,0.276,0.205,0.417l0.156-0.156l0.573,0.573L15.77,5.979c0.042,0.269,0.049,0.544,0.021,0.813
		l0.46,0.46l-0.594,0.594l-0.078-0.078c-0.177,0.502-0.467,0.962-0.863,1.358c-0.332,0.332-0.707,0.58-1.103,0.764l-0.594,0.594
		l-0.318-0.318c-0.177,0.035-0.347,0.05-0.53,0.05l0.559,0.559l-0.594,0.594l-0.566-0.566l0.587-0.587
		c-0.191,0.007-0.389-0.007-0.587-0.035l-0.311,0.311l-0.523-0.523c-0.014,0-0.028-0.014-0.035-0.021
		c-0.127-0.042-0.255-0.099-0.361-0.163c-0.226-0.113-0.438-0.255-0.636-0.424C9.696,9.395,9.682,9.437,9.675,9.473l0.417,0.417
		l-0.594,0.594L9.484,10.47c-0.028,0.24-0.05,0.474-0.057,0.707l0.099-0.099l0.573,0.573l-0.714,0.714
		c-0.007,0.233-0.028,0.453-0.057,0.679l1.082-1.082l0.566,0.566l-1.704,1.704l0.311,0.311l1.704-1.704l0.573,0.573l-1.577,1.577
		l0.311,0.311l1.577-1.577l0.566,0.566l-1.443,1.443l0.311,0.311l1.443-1.443l0.573,0.573l-1.315,1.315l0.311,0.311l1.315-1.315
		l0.566,0.566l-1.188,1.188l0.311,0.311l1.188-1.188l0.573,0.573l-1.054,1.054l0.304,0.304l1.054-1.054l0.573,0.573l-0.827,0.827
		c0.219-0.021,0.438-0.042,0.665-0.042l0.474-0.474l0.431,0.431c0.346-0.007,0.686-0.05,1.011-0.12l0.311-0.311l0.205,0.205
		c0.163-0.021,0.304-0.064,0.453-0.113l-0.375-0.375l0.594-0.594l0.658,0.658c0.035-0.007,0.078-0.021,0.113-0.042l0.212-0.212
		L19.49,16.954z M21.25,13.439l0.594-0.594l0.573,0.573l-0.594,0.594L21.25,13.439z M21.54,14.295l-0.601,0.601l-0.573-0.573
		l0.601-0.601L21.54,14.295z M22.127,12.563l0.601-0.601l0.573,0.573L22.7,13.135L22.127,12.563z M20.084,14.606l0.573,0.573
		l-0.594,0.594L19.49,15.2L20.084,14.606z M23.584,12.251l-0.573-0.573l0.594-0.594l0.573,0.573L23.584,12.251z M25.366,9.324
		l0.573,0.573l-0.594,0.594l-0.573-0.573L25.366,9.324z M24.489,10.201l0.573,0.573l-0.601,0.601l-0.573-0.573L24.489,10.201z
		 M25.055,9.013l-0.594,0.594l-0.573-0.573l0.594-0.594L25.055,9.013z M23.294,10.774L22.7,11.368l-0.573-0.573l0.594-0.594
		L23.294,10.774z M23.004,9.918l0.601-0.601l0.573,0.573l-0.601,0.601L23.004,9.918z M22.417,11.65l-0.601,0.601l-0.573-0.573
		l0.601-0.601L22.417,11.65z M21.533,12.534l-0.594,0.594l-0.573-0.573l0.594-0.594L21.533,12.534z M20.656,13.411l-0.601,0.601
		l-0.573-0.573l0.601-0.601L20.656,13.411z M19.772,14.295l-0.594,0.594l-0.573-0.573l0.594-0.594L19.772,14.295z M18.896,15.172
		l-0.594,0.594l-0.573-0.573l0.594-0.594L18.896,15.172z M18.012,16.056l-0.594,0.594l-0.573-0.573l0.594-0.594L18.012,16.056z
		 M24.178,8.136L23.584,8.73l-0.573-0.573l0.594-0.594L24.178,8.136z M16.852,14.316l0.594-0.594l0.573,0.573l-0.594,0.594
		L16.852,14.316z M17.135,15.179l-0.594,0.594L15.968,15.2l0.594-0.594L17.135,15.179z M17.729,13.439l0.594-0.594l0.573,0.573
		l-0.594,0.594L17.729,13.439z M18.606,12.563l0.601-0.601l0.573,0.573l-0.601,0.601L18.606,12.563z M19.49,11.679l0.594-0.594
		l0.573,0.573l-0.594,0.594L19.49,11.679z M20.366,10.802l0.601-0.601l0.573,0.573l-0.601,0.601L20.366,10.802z M21.25,9.918
		l0.594-0.594l0.573,0.573l-0.594,0.594L21.25,9.918z M22.127,9.041l0.601-0.601l0.573,0.573L22.7,9.614L22.127,9.041z
		 M23.294,7.252L22.7,7.846l-0.566-0.566l0.594-0.594L23.294,7.252z M15.975,13.439l0.594-0.594l0.566,0.566l-0.594,0.594
		L15.975,13.439z M16.251,14.295l-0.594,0.594l-0.566-0.566l0.594-0.594L16.251,14.295z M16.852,12.563l0.594-0.594l0.566,0.566
		l-0.594,0.594L16.852,12.563z M17.729,11.686l0.601-0.601l0.566,0.566l-0.601,0.601L17.729,11.686z M18.613,10.802l0.594-0.594
		l0.566,0.566l-0.594,0.594L18.613,10.802z M19.49,9.925l0.601-0.601l0.566,0.566l-0.601,0.601L19.49,9.925z M20.374,9.041
		l0.594-0.594l0.566,0.566l-0.594,0.594L20.374,9.041z M21.25,8.164l0.601-0.601l0.566,0.566L21.816,8.73L21.25,8.164z
		 M22.417,6.375l-0.594,0.594L21.25,6.397l0.594-0.594L22.417,6.375z M15.091,12.556l0.594-0.594l0.573,0.573l-0.594,0.594
		L15.091,12.556z M15.374,13.418l-0.594,0.594l-0.573-0.573l0.594-0.594L15.374,13.418z M15.968,11.679l0.594-0.594l0.573,0.573
		l-0.594,0.594L15.968,11.679z M16.845,10.802l0.601-0.601l0.573,0.573l-0.601,0.601L16.845,10.802z M17.729,9.918l0.594-0.594
		l0.573,0.573l-0.594,0.594L17.729,9.918z M18.606,9.041l0.601-0.601l0.573,0.573l-0.601,0.601L18.606,9.041z M19.49,8.157
		l0.594-0.594l0.573,0.573L20.062,8.73L19.49,8.157z M20.366,7.281l0.601-0.601l0.573,0.573l-0.601,0.601L20.366,7.281z
		 M21.533,5.492l-0.594,0.594L20.374,5.52l0.594-0.594L21.533,5.492z M14.215,11.679l0.594-0.594l0.566,0.566l-0.594,0.594
		L14.215,11.679z M14.49,12.534l-0.594,0.594l-0.566-0.566l0.594-0.594L14.49,12.534z M15.091,10.802l0.594-0.594l0.566,0.566
		l-0.594,0.594L15.091,10.802z M15.968,9.925l0.601-0.601l0.566,0.566l-0.601,0.601L15.968,9.925z M16.852,9.041l0.594-0.594
		l0.566,0.566l-0.594,0.594L16.852,9.041z M17.729,8.164l0.601-0.601l0.566,0.566L18.295,8.73L17.729,8.164z M18.613,7.281
		l0.594-0.594l0.566,0.566l-0.594,0.594L18.613,7.281z M19.49,6.404l0.601-0.601l0.566,0.566l-0.601,0.601L19.49,6.404z
		 M20.656,4.615l-0.594,0.594L19.49,4.636l0.594-0.594L20.656,4.615z M13.331,10.795l0.594-0.594l0.573,0.573l-0.594,0.594
		L13.331,10.795z M13.614,11.658l-0.594,0.594l-0.573-0.573l0.594-0.594L13.614,11.658z M14.208,9.918l0.594-0.594l0.573,0.573
		l-0.594,0.594L14.208,9.918z M15.084,9.041l0.601-0.601l0.573,0.573l-0.601,0.601L15.084,9.041z M15.968,8.157l0.594-0.594
		l0.573,0.573L16.541,8.73L15.968,8.157z M16.845,7.281l0.601-0.601l0.573,0.573l-0.601,0.601L16.845,7.281z M17.729,6.397
		l0.594-0.594l0.573,0.573l-0.594,0.594L17.729,6.397z M18.606,5.52l0.601-0.601l0.573,0.573l-0.601,0.601L18.606,5.52z
		 M19.207,3.165l0.566,0.566l-0.594,0.594l-0.566-0.566L19.207,3.165z M17.446,4.926l0.566,0.566l-0.594,0.594L16.852,5.52
		L17.446,4.926z M17.729,4.643l0.601-0.601l0.566,0.566l-0.601,0.601L17.729,4.643z M18.323,2.281l0.573,0.573l-0.594,0.594
		l-0.573-0.573L18.323,2.281z M17.446,3.158l0.573,0.573l-0.601,0.601l-0.573-0.573L17.446,3.158z M15.091,3.759l0.594-0.594
		l0.566,0.566l-0.594,0.594L15.091,3.759z M15.968,4.636l0.594-0.594l0.573,0.573l-0.594,0.594L15.968,4.636z M15.968,6.404
		l0.601-0.601l0.566,0.566l-0.601,0.601L15.968,6.404z M10.382,11.368l-0.573-0.573l0.594-0.594l0.573,0.573L10.382,11.368z
		 M10.693,11.679l0.594-0.594l0.566,0.566l-0.594,0.594L10.693,11.679z M11.57,12.556l0.594-0.594l0.573,0.573l-0.594,0.594
		L11.57,12.556z M12.454,13.439l0.594-0.594l0.566,0.566l-0.594,0.594L12.454,13.439z M13.331,14.316l0.594-0.594l0.573,0.573
		l-0.594,0.594L13.331,14.316z M14.215,15.2l0.594-0.594l0.566,0.566l-0.594,0.594L14.215,15.2z M15.091,16.077l0.594-0.594
		l0.573,0.573l-0.594,0.594L15.091,16.077z M16.541,17.527l-0.573-0.573l0.594-0.594l0.573,0.573L16.541,17.527z M17.425,18.41
		l-0.573-0.573l0.594-0.594l0.573,0.573L17.425,18.41z M18.302,17.534l-0.573-0.573l0.594-0.594l0.573,0.573L18.302,17.534z
		 M19.186,16.65l-0.573-0.573l0.594-0.594l0.573,0.573L19.186,16.65z"/>
	<path class="st2" d="M12.164,10.208l0.007,0.007c-0.007,0.007-0.014,0-0.014,0L12.164,10.208z"/>
</g>
</svg>
